<svg width="430" height="140" viewBox="0 0 430 140" fill="none" xmlns="http://www.w3.org/2000/svg">
<path fill-rule="evenodd" clip-rule="evenodd" d="M-113.376 63.1965C-104.548 40.5922 -18.623 40.7935 13.6935 22.5178C37.7243 8.92772 6.24721 -21.6912 44.6856 -26.1914C93.8678 -31.9482 103.413 -2.27123 165.891 1.6605C196.791 3.60523 210.352 -13.8212 253.378 -13.8035C296.404 -13.7858 359.49 15.6952 388.629 26.9322C445.748 48.9607 462.129 72.7825 462.121 92.7825C462.112 112.782 420.112 136.85 362.958 136.826C305.804 136.803 281.728 117.587 240.158 117.087C212.477 116.755 199.014 133.703 172.26 136.748C140.959 140.31 107.26 139.846 76.3144 135.734C21.037 128.388 -124.4 91.422 -113.376 63.1965Z" fill="#95D7CA"/>
</svg>
